<?xml version="1.0" encoding="utf-8"?>
<!-- Generator: Adobe Illustrator 18.1.0, SVG Export Plug-In . SVG Version: 6.00 Build 0)  -->
<svg version="1.1" id="Icons" xmlns="http://www.w3.org/2000/svg" xmlns:xlink="http://www.w3.org/1999/xlink" x="0px" y="0px"
	 width="16.4px" height="16.4px" viewBox="-471 272.6 16.4 16.4" enable-background="new -471 272.6 16.4 16.4"
	 xml:space="preserve">
<path d="M-455,286.4l-5.7-5.7l5.7-5.7c0.6-0.6,0.6-1.5,0-2.1c-0.6-0.6-1.5-0.6-2.1,0l-5.7,5.7l-5.7-5.7c-0.6-0.6-1.5-0.6-2.1,0
	c-0.6,0.6-0.6,1.5,0,2.1l5.7,5.7l-5.7,5.7c-0.6,0.6-0.6,1.5,0,2.1c0.6,0.6,1.5,0.6,2.1,0l5.7-5.7l5.7,5.7c0.6,0.6,1.5,0.6,2.1,0
	S-454.4,287-455,286.4z"/>
</svg>
