<?xml version="1.0" encoding="UTF-8" standalone="no"?>
<svg width="113px" height="26px" viewBox="0 0 113 26" version="1.1" xmlns="http://www.w3.org/2000/svg" xmlns:xlink="http://www.w3.org/1999/xlink" xmlns:sketch="http://www.bohemiancoding.com/sketch/ns">
    <!-- Generator: Sketch 3.3.2 (12043) - http://www.bohemiancoding.com/sketch -->
    <title>Logo</title>
    <desc>Created with Sketch.</desc>
    <defs></defs>
    <g id="Pagina's" stroke="none" stroke-width="1" fill="none" fill-rule="evenodd" sketch:type="MSPage">
        <g id="formulier" sketch:type="MSArtboardGroup" transform="translate(-25.000000, -19.000000)" fill="#FFFFFF">
            <g id="menu" sketch:type="MSLayerGroup" transform="translate(-1.000000, -2.000000)">
                <g id="logo" transform="translate(1.000000, 2.000000)" sketch:type="MSShapeGroup">
                    <g id="Logo" transform="translate(25.000000, 19.000000)">
                        <path d="M0.330708343,25.0540789 L0.330708343,1.5153452 C0.447170266,1.44634056 0.603904069,1.37570588 0.800365538,1.30670124 C0.99845965,1.23769659 1.22430871,1.20237926 1.47954535,1.20237926 C1.9214476,1.20237926 2.24090157,1.3186548 2.43790725,1.55066254 C2.63436872,1.78212693 2.73395999,2.08368266 2.73395999,2.45369969 L2.73395999,21.7152322 C3.40715344,20.6263715 4.15055058,19.4440557 4.96306297,18.1693715 C5.77557536,16.8952307 6.59897204,15.6026161 7.43488566,14.2926146 C8.27025506,12.9831563 9.1072571,11.6965186 9.94262651,10.4332446 C10.7785401,9.17051393 11.5676513,7.98819814 12.30996,6.8873839 C13.0533571,5.78602632 13.7260064,4.80637771 14.3295404,3.94898142 C14.934707,3.09158514 15.421779,2.42001238 15.7934776,1.93263313 C15.9790548,1.79299381 16.2451757,1.63651084 16.5940173,1.46318421 C16.9423146,1.28985759 17.3482987,1.20237926 17.813058,1.20237926 C18.3463883,1.20237926 18.7763178,1.33549845 19.1006697,1.60282353 C19.42611,1.86906192 19.5888302,2.19941486 19.5888302,2.59333901 L19.5888302,25.0540789 L17.1850343,25.0540789 L17.1850343,3.80934211 C16.6522482,4.50536533 16.025313,5.38123529 15.3053171,6.43477864 C14.5858654,7.48995201 13.8076386,8.64944737 12.9717249,9.91163467 C12.1363555,11.1749087 11.2715985,12.5017539 10.377454,13.8927136 C9.4838536,15.2836734 8.60766811,16.6452926 7.74780905,17.9781146 C6.88903842,19.3120232 6.0716281,20.5926842 5.29340123,21.8206409 C4.51571857,23.0491409 3.82511025,24.1271347 3.22103205,25.0540789 L0.330708343,25.0540789" id="Fill-2"></path>
                        <path d="M44.8012039,1.68867183 C44.5465115,2.12986687 44.2145406,2.69168421 43.8091007,3.37521053 C43.4031166,4.05928019 42.9383574,4.81235449 42.4159113,5.63552012 C41.8934653,6.45814241 41.3421759,7.32749226 40.761499,8.24302632 C40.180822,9.15856037 39.5832744,10.0681176 38.9688561,10.9727848 C38.3528052,11.875822 37.7492712,12.751692 37.1577099,13.5982214 C36.5650602,14.4442074 36.0028866,15.2021718 35.4684678,15.8753746 L35.4684678,25.0540789 L33.0309307,25.0540789 L33.0309307,15.8047399 C32.4268525,15.0641625 31.7362441,14.1654721 30.9585615,13.1102988 C30.1814231,12.0567554 29.402652,10.9847384 28.6255135,9.89479102 C27.8478309,8.805387 27.1218486,7.7735774 26.4491994,6.79990557 C25.7760059,5.82623375 25.2524715,5.06229257 24.8818613,4.50536533 C24.5101628,3.97180186 24.2260827,3.5316935 24.0279886,3.18395356 C23.8315272,2.83730031 23.7330243,2.53520124 23.7330243,2.28037307 C23.7330243,2.02554489 23.8146565,1.78212693 23.975744,1.55066254 C24.1390084,1.3186548 24.4410475,1.20237926 24.8818613,1.20237926 C25.137098,1.20237926 25.3351921,1.23171981 25.4734226,1.28985759 C25.6132857,1.34799536 25.7286592,1.40015635 25.8222642,1.44634056 C26.1705615,1.95545356 26.6701505,2.70961455 27.3199427,3.70502012 C27.9697349,4.70205573 28.6957172,5.78602632 29.4962569,6.95638854 C30.2967965,8.12783746 31.1212817,9.31504334 31.969168,10.5201796 C32.8159659,11.7258591 33.6235804,12.7929861 34.3887461,13.719387 C35.2257481,12.6060759 36.0431584,11.4308235 36.8442423,10.19037 C37.644782,8.94991641 38.3821928,7.77955418 39.054842,6.67873994 C39.7291239,5.57738235 40.3146988,4.60968731 40.8137436,3.7756548 C41.3127884,2.94107895 41.6904733,2.36187461 41.9457099,2.03695511 C42.1546883,1.78212693 42.3696531,1.57945975 42.5906042,1.42786687 C42.8104669,1.27736068 43.1070639,1.20237926 43.4787624,1.20237926 C43.873318,1.20237926 44.1807993,1.2713839 44.4017504,1.41102322 C44.6216131,1.55066254 44.7549457,1.64248762 44.8012039,1.68867183" id="Fill-3"></path>
                        <path d="M65.3833999,2.34937771 C65.731153,2.60529257 65.9629884,2.84327709 66.0794503,3.06278793 C66.1948238,3.28338545 66.2530548,3.4969195 66.2530548,3.70502012 C66.2530548,4.03048297 66.1316949,4.33692879 65.8878868,4.6270743 C65.6446229,4.91667647 65.4057127,5.12043034 65.173333,5.2356192 C64.9414976,4.95797059 64.6171457,4.66782508 64.1991889,4.36626935 C63.7817763,4.06525697 63.2936158,3.79249845 62.7357959,3.5490805 C62.1796085,3.30620588 61.546687,3.1035387 60.8386638,2.94107895 C60.1306406,2.7786192 59.3703728,2.69766099 58.5578604,2.69766099 C57.2109293,2.69766099 55.9635895,2.94107895 54.8142082,3.42737152 C53.6642828,3.91366409 52.665649,4.60968731 51.8193953,5.5132678 C50.971509,6.41793498 50.3048461,7.51929257 49.8161414,8.81679721 C49.3290693,10.1153885 49.0852612,11.5753529 49.0852612,13.1977771 C49.0852612,14.8663854 49.3399536,16.3448235 49.8515153,17.6314613 C50.3614444,18.916469 51.0634812,19.9944628 51.9576258,20.864356 C52.8517704,21.7337059 53.8961182,22.3944118 55.0923019,22.845387 C56.2873971,23.2979923 57.5701109,23.5234799 58.9404433,23.5234799 C59.7295544,23.5234799 60.4609789,23.460452 61.1352607,23.3333096 C61.80791,23.2056238 62.411444,23.054031 62.9447743,22.8807043 C63.479193,22.7073777 63.9493944,22.5215542 64.3559227,22.3243204 C64.7619068,22.12763 65.0922451,21.9483266 65.3485701,21.7858669 L66.3929179,23.6631192 C66.1148243,23.8483994 65.731153,24.0570433 65.2440809,24.2885077 C64.7559204,24.5216022 64.1812298,24.741113 63.5205533,24.949757 C62.8587884,25.1578576 62.1322619,25.3317276 61.3436949,25.4708235 C60.5545838,25.6104628 59.7066974,25.6794675 58.8016686,25.6794675 C57.1292971,25.6794675 55.5505306,25.4018189 54.0648247,24.845435 C52.5796631,24.2885077 51.278446,23.4772957 50.164983,22.4112554 C49.0498872,21.3457585 48.1622732,20.0417337 47.4999641,18.4997245 C46.8392876,16.9582585 46.5078609,15.2021718 46.5078609,13.2330944 C46.5078609,11.262387 46.8333012,9.49434675 47.4830934,7.93006037 C48.1328857,6.36577399 49.0096154,5.03892879 50.1127383,3.94898142 C51.2153171,2.86012074 52.5029288,2.02554489 53.9772062,1.44634056 C55.4520277,0.866592879 57.0128352,0.576447368 58.6623496,0.576447368 C59.5211203,0.576447368 60.3162178,0.641105263 61.0476422,0.768247678 C61.7785224,0.895390093 62.4348452,1.05187307 63.0149779,1.23769659 C63.5945665,1.42297678 64.0887133,1.61966718 64.4946974,1.82831115 C64.9012257,2.03695511 65.1967343,2.21028173 65.3833999,2.34937771" id="Fill-4"></path>
                        <path d="M88.2273517,25.0540789 L88.2273517,13.6840697 L73.7060737,13.6840697 L73.7060737,25.0540789 L71.3022778,25.0540789 L71.3022778,2.45369969 C71.3022778,2.08368266 71.4007806,1.78212693 71.5988747,1.55066254 C71.7953362,1.3186548 72.1256745,1.20237926 72.5909779,1.20237926 C72.8228134,1.20237926 73.0377781,1.23171981 73.2347838,1.28985759 C73.4328779,1.34799536 73.5896117,1.41102322 73.7060737,1.48002786 L73.7060737,11.5981734 L88.2273517,11.5981734 L88.2273517,2.45369969 C88.2273517,2.08368266 88.3258545,1.78212693 88.5239486,1.55066254 C88.7204101,1.3186548 89.0398641,1.20237926 89.4812221,1.20237926 C89.7359145,1.20237926 89.9617636,1.23769659 90.1598577,1.30670124 C90.3568634,1.37570588 90.5135972,1.44634056 90.6300591,1.5153452 L90.6300591,25.0540789 L88.2273517,25.0540789" id="Fill-5"></path>
                        <path d="M110.828584,11.6334907 C111.152936,11.6334907 111.425043,11.719339 111.645994,11.8942957 C111.866945,12.0676223 111.977421,12.3403808 111.977421,12.7103978 C111.977421,12.9663127 111.93606,13.1858235 111.854972,13.3711037 C111.77334,13.5569272 111.710211,13.6840697 111.663953,13.754161 L99.9981691,13.754161 L99.9981691,22.9328653 L112.255514,22.9328653 L112.255514,25.0540789 L97.5943733,25.0540789 L97.5943733,2.59333901 C97.5943733,2.17605108 97.7217195,1.84026471 97.9780446,1.58434985 C98.2332812,1.32952167 98.6049798,1.20237926 99.0920518,1.20237926 L111.315656,1.20237926 C111.640008,1.20237926 111.913203,1.28985759 112.134155,1.46318421 C112.354017,1.63651084 112.464493,1.90926935 112.464493,2.28037307 C112.464493,2.53520124 112.424765,2.75579876 112.343133,2.94107895 C112.261501,3.12690248 112.197283,3.25404489 112.151025,3.32304954 L99.9981691,3.32304954 L99.9981691,11.6334907 L110.828584,11.6334907" id="Fill-6"></path>
                    </g>
                </g>
            </g>
        </g>
    </g>
</svg>