<?xml version="1.0" encoding="UTF-8" standalone="no"?>
<svg width="100px" height="100px" viewBox="0 0 100 100" version="1.1" xmlns="http://www.w3.org/2000/svg" xmlns:xlink="http://www.w3.org/1999/xlink" xmlns:sketch="http://www.bohemiancoding.com/sketch/ns">
    <!-- Generator: Sketch 3.2.2 (9983) - http://www.bohemiancoding.com/sketch -->
    <title>add</title>
    <desc>Created with Sketch.</desc>
    <defs></defs>
    <g id="Page-1" stroke="none" stroke-width="1" fill="none" fill-rule="evenodd" sketch:type="MSPage">
        <g id="add" sketch:type="MSArtboardGroup" fill="#000000">
            <path d="M93,40 L59,40 L59,6 C59,0.5 54.5,0 49,0 C43.5,0 39,0.5 39,6 L39,40 L6,40 C0.5,40 0,44.5 0,50 C0,55.5 0.5,60 6,60 L39,60 L39,94 C39,99.5 43.5,100 49,100 C54.5,100 59,99.5 59,94 L59,60 L93,60 C98.5,60 99,55.5 99,50 C99,44.5 98.5,40 93,40" id="Imported-Layers" sketch:type="MSShapeGroup"></path>
        </g>
    </g>
</svg>