<?xml version="1.0" encoding="UTF-8" standalone="no"?>
<svg width="12px" height="7px" viewBox="0 0 12 7" version="1.1" xmlns="http://www.w3.org/2000/svg" xmlns:xlink="http://www.w3.org/1999/xlink" xmlns:sketch="http://www.bohemiancoding.com/sketch/ns">
    <!-- Generator: Sketch 3.3.1 (12005) - http://www.bohemiancoding.com/sketch -->
    <title>angle</title>
    <desc>Created with Sketch.</desc>
    <defs></defs>
    <g id="Pagina's" stroke="none" stroke-width="1" fill="none" fill-rule="evenodd" sketch:type="MSPage">
        <g id="formulier" sketch:type="MSArtboardGroup" transform="translate(-1493.000000, -23.000000)" fill="#AAAFBD">
            <g id="zoekbalk" sketch:type="MSLayerGroup" transform="translate(233.000000, -2.000000)">
                <g id="user" transform="translate(1077.600000, 10.100000)" sketch:type="MSShapeGroup">
                    <g id="angle" transform="translate(183.000000, 15.000000)">
                        <path d="M10.2981463,0.13825 C10.2253049,0.07025 10.1414634,0.036375 10.046622,0.036375 C9.95204878,0.036375 9.86820732,0.07025 9.79536585,0.13825 L5.5,4.140625 L1.20476829,0.138375 C1.13192683,0.070375 1.04808537,0.0365 0.953378049,0.0365 C0.858670732,0.0365 0.774829268,0.070375 0.701987805,0.138375 L0.155609756,0.6475 C0.0826341463,0.715375 0.0462804878,0.7935 0.0462804878,0.88175 C0.0462804878,0.97 0.0827682927,1.048125 0.155609756,1.116 L5.24860976,5.861875 C5.32145122,5.92975 5.40529268,5.963625 5.5,5.963625 C5.59470732,5.963625 5.67841463,5.92975 5.7512561,5.861875 L10.8445244,1.116 C10.9173659,1.048125 10.9535854,0.97 10.9535854,0.88175 C10.9535854,0.7935 10.9173659,0.715375 10.8445244,0.647375 L10.2981463,0.13825 Z" id="Shape"></path>
                    </g>
                </g>
            </g>
        </g>
    </g>
</svg>