<?xml version="1.0" encoding="UTF-8" standalone="no"?>
<svg width="100px" height="100px" viewBox="0 0 100 100" version="1.1" xmlns="http://www.w3.org/2000/svg" xmlns:xlink="http://www.w3.org/1999/xlink" xmlns:sketch="http://www.bohemiancoding.com/sketch/ns">
    <!-- Generator: Sketch 3.2.2 (9983) - http://www.bohemiancoding.com/sketch -->
    <title>arrow-show-menu</title>
    <desc>Created with Sketch.</desc>
    <defs></defs>
    <g id="Page-1" stroke="none" stroke-width="1" fill="none" fill-rule="evenodd" sketch:type="MSPage">
        <g id="arrow-show-menu" sketch:type="MSArtboardGroup" fill="#000000">
            <g sketch:type="MSLayerGroup" transform="translate(-1.000000, 8.000000)" id="Group">
                <g sketch:type="MSShapeGroup">
                    <path d="M100.6,9.6 C100.6,14.7 96.4,18.9 91.3,18.9 L9.9,18.9 C4.8,18.9 0.6,14.7 0.6,9.6 L0.6,9.6 C0.6,4.5 4.8,0.3 9.9,0.3 L91.3,0.3 C96.4,0.4 100.6,4.5 100.6,9.6 L100.6,9.6 L100.6,9.6 Z" id="Shape"></path>
                    <path d="M100.6,41.8 C100.6,46.9 96.4,51.1 91.3,51.1 L9.9,51.1 C4.8,51.1 0.6,46.9 0.6,41.8 L0.6,41.8 C0.6,36.7 4.8,32.5 9.9,32.5 L91.3,32.5 C96.4,32.5 100.6,36.7 100.6,41.8 L100.6,41.8 L100.6,41.8 Z" id="Shape"></path>
                    <path d="M100.6,74 C100.6,79.1 96.4,83.3 91.3,83.3 L9.9,83.3 C4.8,83.3 0.6,79.1 0.6,74 L0.6,74 C0.6,68.9 4.8,64.7 9.9,64.7 L91.3,64.7 C96.4,64.7 100.6,68.9 100.6,74 L100.6,74 L100.6,74 Z" id="Shape"></path>
                </g>
            </g>
        </g>
    </g>
</svg>