<?xml version="1.0" encoding="UTF-8" standalone="no"?>
<svg width="100px" height="100px" viewBox="0 0 100 100" version="1.1" xmlns="http://www.w3.org/2000/svg" xmlns:xlink="http://www.w3.org/1999/xlink" xmlns:sketch="http://www.bohemiancoding.com/sketch/ns">
    <!-- Generator: Sketch 3.3.2 (12043) - http://www.bohemiancoding.com/sketch -->
    <title>avatar</title>
    <desc>Created with Sketch.</desc>
    <defs></defs>
    <g id="Page-1" stroke="none" stroke-width="1" fill="none" fill-rule="evenodd" sketch:type="MSPage">
        <g id="avatar" sketch:type="MSArtboardGroup" fill="#AAAFBD">
            <g id="bg-+-icon-user" sketch:type="MSLayerGroup">
                <path d="M50.3290974,99.0583252 C77.5924209,99.0583252 99.6937113,76.9570347 99.6937113,49.6937113 C99.6937113,22.4303879 77.5924209,0.329097426 50.3290974,0.329097426 C23.065774,0.329097426 0.964483545,22.4303879 0.964483545,49.6937113 C0.964483545,76.9570347 23.065774,99.0583252 50.3290974,99.0583252 Z M50.3290974,92.4763767 C73.9573111,92.4763767 93.1117628,73.3219249 93.1117628,49.6937113 C93.1117628,26.0654977 73.9573111,6.91104594 50.3290974,6.91104594 C26.7008838,6.91104594 7.54643206,26.0654977 7.54643206,49.6937113 C7.54643206,73.3219249 26.7008838,92.4763767 50.3290974,92.4763767 Z" id="bg" sketch:type="MSShapeGroup"></path>
                <path d="M66.7839687,62.2265157 L66.7839687,66.1485826 L33.8742261,66.1485826 L33.8742261,62.2265157 L44.8447856,55.1799589 L44.8447856,52.4348994 C44.1672322,52.4348994 43.5419471,51.7554099 42.9650584,50.3925592 C42.3862343,49.0316446 42.1016618,47.8836755 42.1016618,46.9525233 L42.1016618,41.4662757 C42.1016618,39.1993753 42.9069826,37.2615719 44.5156882,35.6509306 C46.1243937,34.0441608 48.0641328,33.23884 50.3290974,33.23884 C52.5940621,33.23884 54.5338011,34.0441608 56.1425067,35.6509306 C57.7492765,37.2615719 58.5565331,39.1993753 58.5565331,41.4662757 L58.5565331,46.9525233 C58.5565331,47.8836755 58.2700248,49.0316446 57.6931364,50.3925592 C57.1162477,51.7554099 56.4909626,52.4348994 55.8134093,52.4348994 L55.8134093,55.1799589 L66.7839687,62.2265157" id="icon-user" sketch:type="MSShapeGroup"></path>
            </g>
        </g>
    </g>
</svg>