<?xml version="1.0" encoding="utf-8"?>
<!-- Generator: Adobe Illustrator 19.1.0, SVG Export Plug-In . SVG Version: 6.00 Build 0)  -->
<svg version="1.1" id="Layer_1" xmlns:sketch="http://www.bohemiancoding.com/sketch/ns"
	 xmlns="http://www.w3.org/2000/svg" xmlns:xlink="http://www.w3.org/1999/xlink" x="0px" y="0px" viewBox="-49 51 100 100"
	 style="enable-background:new -49 51 100 100;" xml:space="preserve">
<style type="text/css">
	.st0{fill:#AAAFBD;}
</style>
<g id="icon-user">
	<path sketch:type="MSShapeGroup" class="st0" d="M17,117.1H-15v-3.8l10.6-6.8v-2.7c-0.7,0-1.2-0.7-1.8-2c-0.6-1.3-0.9-2.4-0.9-3.4
		v-5.4c0-2.2,0.8-4.1,2.3-5.7s3.5-2.3,5.7-2.3s4.1,0.8,5.7,2.3s2.3,3.5,2.3,5.7v5.4c0,0.9-0.3,2-0.9,3.4c-0.6,1.3-1.2,2-1.8,2v2.7
		l10.6,6.8L17,117.1L17,117.1z"/>
</g>
<g id="bg">
	<path class="st0" d="M1,151c-27.5,0-49.8-22.4-49.8-50c0-27.5,22.3-50,49.8-50c27.5,0,49.8,22.4,49.8,50C50.8,128.5,28.5,151,1,151
		z M1,57c-24.1,0-43.8,19.7-43.8,44s19.6,44,43.8,44c24.1,0,43.8-19.7,43.8-44S25.1,57,1,57z"/>
</g>
</svg>
