<?xml version="1.0" encoding="UTF-8" standalone="no"?>
<svg width="31px" height="31px" viewBox="0 0 31 31" version="1.1" xmlns="http://www.w3.org/2000/svg" xmlns:xlink="http://www.w3.org/1999/xlink" xmlns:sketch="http://www.bohemiancoding.com/sketch/ns">
    <!-- Generator: Sketch 3.3.1 (12005) - http://www.bohemiancoding.com/sketch -->
    <title>avatar</title>
    <desc>Created with Sketch.</desc>
    <defs></defs>
    <g id="Pagina's" stroke="none" stroke-width="1" fill="none" fill-rule="evenodd" sketch:type="MSPage">
        <g id="formulier" sketch:type="MSArtboardGroup" transform="translate(-1310.000000, -8.000000)">
            <g id="zoekbalk" sketch:type="MSLayerGroup" transform="translate(233.000000, -2.000000)">
                <g id="user" transform="translate(1077.600000, 10.100000)" sketch:type="MSShapeGroup">
                    <g id="avatar">
                        <circle id="bg" fill="#AAAFBD" cx="15" cy="15" r="15"></circle>
                        <circle id="Oval-13" fill="#FFFFFF" cx="15" cy="15" r="13"></circle>
                        <path d="M20,18.8082353 L20,20 L10,20 L10,18.8082353 L13.3335294,16.6670588 L13.3335294,15.8329412 C13.1276471,15.8329412 12.9376471,15.6264706 12.7623529,15.2123529 C12.5864706,14.7988235 12.5,14.45 12.5,14.1670588 L12.5,12.5 C12.5,11.8111765 12.7447059,11.2223529 13.2335294,10.7329412 C13.7223529,10.2447059 14.3117647,10 15,10 C15.6882353,10 16.2776471,10.2447059 16.7664706,10.7329412 C17.2547059,11.2223529 17.5,11.8111765 17.5,12.5 L17.5,14.1670588 C17.5,14.45 17.4129412,14.7988235 17.2376471,15.2123529 C17.0623529,15.6264706 16.8723529,15.8329412 16.6664706,15.8329412 L16.6664706,16.6670588 L20,18.8082353" id="icon-user" fill="#AAAFBD"></path>
                    </g>
                </g>
            </g>
        </g>
    </g>
</svg>