<?xml version="1.0" encoding="UTF-8" standalone="no"?>
<svg width="100px" height="100px" viewBox="0 0 100 100" version="1.1" xmlns="http://www.w3.org/2000/svg" xmlns:xlink="http://www.w3.org/1999/xlink" xmlns:sketch="http://www.bohemiancoding.com/sketch/ns">
    <!-- Generator: Sketch 3.3.2 (12043) - http://www.bohemiancoding.com/sketch -->
    <title>breadcrumb-separator</title>
    <desc>Created with Sketch.</desc>
    <defs></defs>
    <g id="Page-1" stroke="none" stroke-width="1" fill="none" fill-rule="evenodd" sketch:type="MSPage">
        <g id="breadcrumb-separator" sketch:type="MSArtboardGroup" fill="#7590A9">
            <path d="M99.0001107,26.2265608 L93.9908251,21.0381848 C93.3230024,20.3452124 92.5543298,20 91.6848073,20 C90.8177447,20 90.049072,20.3452124 89.3812493,21.0381848 L50.0006149,61.8254703 L10.6212105,21.0394586 C9.95338769,20.3464862 9.1847151,20.0012738 8.31642253,20.0012738 C7.44812997,20.0012738 6.67945738,20.3464862 6.01163463,21.0394586 L1.00234906,26.2278347 C0.333296437,26.9195332 0,27.7156872 0,28.6150227 C0,29.5143582 0.334526313,30.3105122 1.00234906,31.0022107 L47.695827,79.3663341 C48.3636498,80.0580327 49.1323224,80.403245 50.0006149,80.403245 C50.8689075,80.403245 51.6363502,80.0580327 52.3041729,79.3663341 L99.0001107,31.0022107 C99.6679334,30.3105122 100,29.5143582 100,28.6150227 C100,27.7156872 99.6679334,26.9195332 99.0001107,26.2265608 L99.0001107,26.2265608 L99.0001107,26.2265608 Z" id="Shape" sketch:type="MSShapeGroup" transform="translate(50.000000, 50.201623) rotate(-90.000000) translate(-50.000000, -50.201623) "></path>
        </g>
    </g>
</svg>