<?xml version="1.0" encoding="UTF-8" standalone="no"?>
<svg width="100px" height="100px" viewBox="0 0 100 100" version="1.1" xmlns="http://www.w3.org/2000/svg" xmlns:xlink="http://www.w3.org/1999/xlink" xmlns:sketch="http://www.bohemiancoding.com/sketch/ns">
    <!-- Generator: Sketch 3.2.2 (9983) - http://www.bohemiancoding.com/sketch -->
    <title>cogwheel</title>
    <desc>Created with Sketch.</desc>
    <defs></defs>
    <g id="Page-1" stroke="none" stroke-width="1" fill="none" fill-rule="evenodd" sketch:type="MSPage">
        <g id="cogwheel" sketch:type="MSArtboardGroup" fill="#000000">
            <g sketch:type="MSLayerGroup" transform="translate(0.000000, -1.000000)" id="Shape">
                <path d="M88,58.5 L99.9,55.9 L99.9,45.4 L88.1,42.8 C87.1,37.9 85.2,33.3 82.5,29.3 L89,19.1 L81.5,11.7 L71.3,18.2 C67.3,15.6 62.8,13.7 58,12.7 L55.3,0.3 L44.8,0.3 L42,12.7 C37.1,13.7 32.5,15.7 28.5,18.4 L17.9,11.6 L10.5,19 L17.4,29.8 C14.9,33.7 13.1,38 12.2,42.7 L0.1,45.4 L0.1,55.9 L12.2,58.6 C13.2,63.4 15.1,67.8 17.7,71.8 L11,82.3 L18.4,89.7 L28.9,83 C32.9,85.6 37.4,87.5 42.2,88.5 L44.8,100.1 L55.3,100.1 L57.9,88.6 C62.7,87.6 67.1,85.8 71.1,83.3 L81.2,89.8 L88.6,82.3 L82.3,72.4 C84.9,68.1 87,63.5 88,58.5 L88,58.5 Z M50,70.2 C39.1,70.2 30.3,61.4 30.3,50.5 C30.3,39.6 39.1,30.8 50,30.8 C60.9,30.8 69.7,39.6 69.7,50.5 C69.8,61.4 60.9,70.2 50,70.2 L50,70.2 Z" sketch:type="MSShapeGroup"></path>
            </g>
        </g>
    </g>
</svg>