<?xml version="1.0" encoding="UTF-8" standalone="no"?>
<svg width="100px" height="100px" viewBox="0 0 100 100" version="1.1" xmlns="http://www.w3.org/2000/svg" xmlns:xlink="http://www.w3.org/1999/xlink" xmlns:sketch="http://www.bohemiancoding.com/sketch/ns">
    <!-- Generator: Sketch 3.2.2 (9983) - http://www.bohemiancoding.com/sketch -->
    <title>contacts</title>
    <desc>Created with Sketch.</desc>
    <defs></defs>
    <g id="Page-1" stroke="none" stroke-width="1" fill="none" fill-rule="evenodd" sketch:type="MSPage">
        <g id="contacts" sketch:type="MSArtboardGroup" fill="#000000">
            <g sketch:type="MSLayerGroup" transform="translate(-1.000000, 16.000000)" id="Shape">
                <path d="M94.9,52.1 C78.6,47.5 73.7,40.8 73.7,40.8 C75.7,39.9 75.2,35.6 75.2,35.6 C76.1,35.6 77.8,33 77.8,33 C80.4,30.7 79,23.5 79,23.5 C80.2,14.8 77.3,11.1 77.3,11.1 C77.3,9.1 71.5,7.1 71.5,7.1 C71.5,4.8 64.8,5.4 64.8,5.4 C59.9,5.4 59.8,6.8 59.8,6.8 C59.3,6.8 61.6,8.7 61.6,10.3 C61.6,10.3 63.4,11.7 62.2,20.4 C62.2,20.4 63.9,28 61.3,30.3 C61.3,30.3 60.4,33.5 58.3,33.5 C58.3,33.5 58.9,37 57.1,38.2 C57.1,38.2 60.1,41.9 66.3,45 C70.4,47 74.6,48.1 78.2,49.5 C78.9,49.8 84.5,53.3 85.2,64.3 C85.3,66.6 87.3,66.1 87.3,66.1 L98.7,66.1 C98.7,66.1 100.8,66.2 100.8,64.1 C100.7,54.1 94.9,52.1 94.9,52.1 L94.9,52.1 Z" sketch:type="MSShapeGroup"></path>
                <path d="M71.8,67.5 L8.4,67.5 C8.4,67.5 1.6,68 1,65.6 C0.2,62.2 0.7,54.7 9.4,51.6 C9.4,51.6 28.3,46.5 28.3,41.1 C28.3,41.1 31.5,41.4 31.5,39.8 C31.5,39.8 28.3,37.3 28.6,32.5 C28.6,32.5 25.7,31.9 25.7,29.3 C25.7,29.3 23.8,27.1 25.1,20.7 C25.1,20.7 23.2,10.8 26.7,5.8 C26.7,5.8 30.5,2.3 32.5,2.3 C32.5,2.3 33.1,0.7 38.6,0.7 C38.6,0.7 46,0.1 46,2.6 C46,2.6 52.4,4.8 52.4,7 C52.4,7 55.6,11.1 54.3,20.7 C54.3,20.7 55.9,28.6 53,31.2 C53,31.2 51.1,34.1 50.1,34.1 C50.1,34.1 50.7,38.9 48.5,39.8 C48.5,39.8 49.8,40.8 51.1,40.4 C51.1,40.4 54,47.1 71.9,52.2 C71.9,52.2 80.3,56.3 78.9,65.1 C78.3,67.7 71.8,67.5 71.8,67.5 L71.8,67.5 Z" sketch:type="MSShapeGroup"></path>
            </g>
        </g>
    </g>
</svg>