<?xml version="1.0" encoding="UTF-8" standalone="no"?>
<svg width="100px" height="100px" viewBox="0 0 100 100" version="1.1" xmlns="http://www.w3.org/2000/svg" xmlns:xlink="http://www.w3.org/1999/xlink" xmlns:sketch="http://www.bohemiancoding.com/sketch/ns">
    <!-- Generator: Sketch 3.2.2 (9983) - http://www.bohemiancoding.com/sketch -->
    <title>delete</title>
    <desc>Created with Sketch.</desc>
    <defs></defs>
    <g id="Page-1" stroke="none" stroke-width="1" fill="none" fill-rule="evenodd" sketch:type="MSPage">
        <g id="delete" sketch:type="MSArtboardGroup" fill="#000000">
            <g sketch:type="MSLayerGroup" transform="translate(8.000000, 0.000000)" id="Shape">
                <path d="M42,0 C15.9,0 -0.3,8.6 0.6,15.6 L9.4,88 C9.8,90.8 22.9,100.1 42,100.1 C61.1,100.1 74.3,90.8 74.6,88 L83.4,15.6 C84.3,8.6 68.1,0 42,0 L42,0 Z M59,74.7 L53.5,80.2 L43.3,70 L33.1,80.2 L27.6,74.7 L37.8,64.5 L27.6,54.3 L33.1,48.8 L43.3,59 L53.5,48.8 L59,54.3 L48.8,64.5 L59,74.7 L59,74.7 Z M42,27.2 C22.9,27.2 9.4,20.4 9.4,17.8 C9.4,15.3 22.9,8.5 42,8.5 C61.1,8.5 74.7,15.3 74.6,17.8 C74.6,20.4 61.1,27.2 42,27.2 L42,27.2 Z" sketch:type="MSShapeGroup"></path>
            </g>
        </g>
    </g>
</svg>