<?xml version="1.0" encoding="UTF-8" standalone="no"?>
<svg width="100px" height="100px" viewBox="0 0 100 100" version="1.1" xmlns="http://www.w3.org/2000/svg" xmlns:xlink="http://www.w3.org/1999/xlink" xmlns:sketch="http://www.bohemiancoding.com/sketch/ns">
    <!-- Generator: Sketch 3.2.2 (9983) - http://www.bohemiancoding.com/sketch -->
    <title>edit</title>
    <desc>Created with Sketch.</desc>
    <defs></defs>
    <g id="Page-1" stroke="none" stroke-width="1" fill="none" fill-rule="evenodd" sketch:type="MSPage">
        <g id="edit" sketch:type="MSArtboardGroup" fill="#000000">
            <g sketch:type="MSLayerGroup" transform="translate(-1.000000, 5.000000)" id="Shape">
                <path d="M78.4,73.4 C78.4,75.4 76.8,77 74.8,77 L16.4,77 C14.4,77 12.8,75.4 12.8,73.4 L12.8,16.2 C12.8,14.2 14.4,12.6 16.4,12.6 L62.7,12.6 L74.2,0.6 L4.5,0.6 C2.3,0.6 0.5,2.4 0.5,4.6 L0.5,85.1 C0.5,87.3 2.3,89.1 4.5,89.1 L86.3,89.1 C88.5,89.1 90.3,87.3 90.3,85.1 L90.3,39.6 L78.4,50.1 L78.4,73.4 L78.4,73.4 Z" sketch:type="MSShapeGroup"></path>
                <path d="M96,8 C90.6,2.6 86.5,3.4 86.5,3.4 L67.4,22.5 L45.6,44.3 L41.8,62.3 L59.8,58.5 L81.6,36.7 L100.7,17.6 C100.6,17.6 101.4,13.5 96,8 L96,8 Z M58.3,56.8 L52.2,58.1 C51.6,57 50.9,55.9 49.6,54.6 C48.3,53.3 47.2,52.6 46.1,52 L47.4,45.9 L49.2,44.1 C49.2,44.1 52.5,44.2 56.3,47.9 C60.1,51.7 60.1,55 60.1,55 L58.3,56.8 L58.3,56.8 Z" sketch:type="MSShapeGroup"></path>
            </g>
        </g>
    </g>
</svg>