<?xml version="1.0" encoding="UTF-8" standalone="no"?>
<svg width="100px" height="100px" viewBox="0 0 100 100" version="1.1" xmlns="http://www.w3.org/2000/svg" xmlns:xlink="http://www.w3.org/1999/xlink" xmlns:sketch="http://www.bohemiancoding.com/sketch/ns">
    <!-- Generator: Sketch 3.2.2 (9983) - http://www.bohemiancoding.com/sketch -->
    <title>import</title>
    <desc>Created with Sketch.</desc>
    <defs></defs>
    <g id="Page-1" stroke="none" stroke-width="1" fill="none" fill-rule="evenodd" sketch:type="MSPage">
        <g id="import" sketch:type="MSArtboardGroup" fill="#000000">
            <g sketch:type="MSLayerGroup" transform="translate(-1.000000, 8.000000)" id="Shape">
                <path d="M99.2,47.1 L81.7,5.5 C80.3,2.7 76.6,0.5 73.6,0.5 L62.1,0.5 L64.3,23.1 L79.3,23.1 L51,46.6 L22.7,23.1 L37.7,23.1 L39.9,0.5 L28.4,0.5 C25.3,0.5 21.6,2.8 20.2,5.5 L2.7,47.1 C1.3,49.9 0.6,54.7 1.1,57.7 L4.9,78.2 C5.4,81.3 8.4,83.8 11.5,83.8 L90.5,83.8 C93.6,83.8 96.5,81.3 97.1,78.2 L100.9,57.7 C101.3,54.7 100.6,49.9 99.2,47.1 L99.2,47.1 Z M91.7,62.3 L90.3,70.3 C89.9,73.4 87,75.9 83.9,75.9 L18.3,75.9 C15.2,75.9 12.3,73.4 11.9,70.3 L10.5,62.3 C10.1,59.2 12.3,56.7 15.4,56.7 L87,56.7 C89.9,56.7 92.1,59.2 91.7,62.3 L91.7,62.3 Z" sketch:type="MSShapeGroup"></path>
            </g>
        </g>
    </g>
</svg>