<?xml version="1.0" encoding="UTF-8" standalone="no"?>
<svg width="100px" height="100px" viewBox="0 0 100 100" version="1.1" xmlns="http://www.w3.org/2000/svg" xmlns:xlink="http://www.w3.org/1999/xlink" xmlns:sketch="http://www.bohemiancoding.com/sketch/ns">
    <!-- Generator: Sketch 3.2.2 (9983) - http://www.bohemiancoding.com/sketch -->
    <title>list</title>
    <desc>Created with Sketch.</desc>
    <defs></defs>
    <g id="Page-1" stroke="none" stroke-width="1" fill="none" fill-rule="evenodd" sketch:type="MSPage">
        <g id="list" sketch:type="MSArtboardGroup" fill="#000000">
            <g sketch:type="MSLayerGroup" transform="translate(-1.000000, 13.000000)" id="Group">
                <g sketch:type="MSShapeGroup">
                    <path d="M18.4,15.2 C18.4,16.7 17.2,17.8 15.8,17.8 L3.6,17.8 C2.1,17.8 1,16.6 1,15.2 L1,3 C1,1.5 2.2,0.4 3.6,0.4 L15.8,0.4 C17.3,0.4 18.4,1.6 18.4,3 L18.4,15.2 L18.4,15.2 Z" id="Shape"></path>
                    <path d="M101,15.2 C101,16.7 99.8,17.8 98.4,17.8 L34.5,17.8 C33,17.8 31.9,16.6 31.9,15.2 L31.9,3 C31.9,1.5 33.1,0.4 34.5,0.4 L98.4,0.4 C99.9,0.4 101,1.6 101,3 L101,15.2 L101,15.2 Z" id="Shape"></path>
                    <path d="M18.4,43.2 C18.4,44.7 17.2,45.8 15.8,45.8 L3.6,45.8 C2.1,45.8 1,44.6 1,43.2 L1,30.9 C1,29.4 2.2,28.3 3.6,28.3 L15.8,28.3 C17.3,28.3 18.4,29.5 18.4,30.9 L18.4,43.2 L18.4,43.2 Z" id="Shape"></path>
                    <path d="M101,43.2 C101,44.7 99.8,45.8 98.4,45.8 L34.5,45.8 C33,45.8 31.9,44.6 31.9,43.2 L31.9,30.9 C31.9,29.4 33.1,28.3 34.5,28.3 L98.4,28.3 C99.9,28.3 101,29.5 101,30.9 L101,43.2 L101,43.2 Z" id="Shape"></path>
                    <path d="M18.4,71 C18.4,72.5 17.2,73.6 15.8,73.6 L3.6,73.6 C2.1,73.6 1,72.4 1,71 L1,58.8 C1,57.3 2.2,56.2 3.6,56.2 L15.8,56.2 C17.3,56.2 18.4,57.4 18.4,58.8 L18.4,71 L18.4,71 Z" id="Shape"></path>
                    <path d="M101,71 C101,72.5 99.8,73.6 98.4,73.6 L34.5,73.6 C33,73.6 31.9,72.4 31.9,71 L31.9,58.8 C31.9,57.3 33.1,56.2 34.5,56.2 L98.4,56.2 C99.9,56.2 101,57.4 101,58.8 L101,71 L101,71 Z" id="Shape"></path>
                </g>
            </g>
        </g>
    </g>
</svg>