<?xml version="1.0" encoding="UTF-8" standalone="no"?>
<svg width="100px" height="100px" viewBox="0 0 100 100" version="1.1" xmlns="http://www.w3.org/2000/svg" xmlns:xlink="http://www.w3.org/1999/xlink" xmlns:sketch="http://www.bohemiancoding.com/sketch/ns">
    <!-- Generator: Sketch 3.2.2 (9983) - http://www.bohemiancoding.com/sketch -->
    <title>lock</title>
    <desc>Created with Sketch.</desc>
    <defs></defs>
    <g id="Page-1" stroke="none" stroke-width="1" fill="none" fill-rule="evenodd" sketch:type="MSPage">
        <g id="lock" sketch:type="MSArtboardGroup" fill="#747E9F">
            <g sketch:type="MSLayerGroup" transform="translate(9.000000, -1.000000)" id="Shape">
                <path d="M75.4,35.8 L64.8,35.8 L64.8,27.6 C64.8,10.6 56.9,0.5 41.3,0.5 C25.6,0.5 17.8,10.5 17.8,27.6 L17.8,35.8 L6,35.8 C2.8,35.8 0.1,39.6 0.1,42.9 L0.1,88.8 C0.1,92 2.6,95.5 5.7,96.5 L12.7,98.8 C15.8,99.8 20.9,100.6 24.2,100.6 L58.3,100.6 C61.5,100.6 66.7,99.8 69.8,98.8 L76.8,96.5 C79.9,95.5 82.4,92 82.4,88.8 L82.4,42.9 C82.4,39.6 78.6,35.8 75.4,35.8 L75.4,35.8 Z M29.5,25.3 C29.5,16.8 34.2,12.4 41.3,12.4 C48.4,12.4 53.1,16.8 53.1,25.3 L53.1,35.9 L29.6,35.9 L29.6,25.3 L29.5,25.3 Z" sketch:type="MSShapeGroup"></path>
            </g>
        </g>
    </g>
</svg>