<?xml version="1.0" encoding="UTF-8" standalone="no"?>
<svg width="100px" height="100px" viewBox="0 0 100 100" version="1.1" xmlns="http://www.w3.org/2000/svg" xmlns:xlink="http://www.w3.org/1999/xlink" xmlns:sketch="http://www.bohemiancoding.com/sketch/ns">
    <!-- Generator: Sketch 3.2.2 (9983) - http://www.bohemiancoding.com/sketch -->
    <title>preview</title>
    <desc>Created with Sketch.</desc>
    <defs></defs>
    <g id="Page-1" stroke="none" stroke-width="1" fill="none" fill-rule="evenodd" sketch:type="MSPage">
        <g id="preview" sketch:type="MSArtboardGroup" fill="#000000">
            <g sketch:type="MSLayerGroup" transform="translate(-1.000000, 22.000000)" id="Shape">
                <path d="M50.6,0 C17.8,0 0.6,24.2 0.6,28 C0.6,31.8 17.8,56 50.6,56 C83.4,56 100.6,31.8 100.6,28 C100.7,24.2 83.5,0 50.6,0 L50.6,0 Z M50.6,49.6 C38.3,49.6 28.4,40 28.4,28.1 C28.4,16.2 38.3,6.6 50.6,6.6 C62.9,6.6 72.8,16.2 72.8,28.1 C72.9,39.9 62.9,49.6 50.6,49.6 L50.6,49.6 Z M50.6,28 C48.6,25.8 53.9,17.2 50.6,17.2 C44.5,17.2 39.5,22 39.5,28 C39.5,34 44.5,38.8 50.6,38.8 C56.7,38.8 61.7,34 61.7,28 C61.8,25.3 52.4,29.9 50.6,28 L50.6,28 Z" sketch:type="MSShapeGroup"></path>
            </g>
        </g>
    </g>
</svg>