<?xml version="1.0" encoding="UTF-8" standalone="no"?>
<svg width="100px" height="100px" viewBox="0 0 100 100" version="1.1" xmlns="http://www.w3.org/2000/svg" xmlns:xlink="http://www.w3.org/1999/xlink" xmlns:sketch="http://www.bohemiancoding.com/sketch/ns">
    <!-- Generator: Sketch 3.2.2 (9983) - http://www.bohemiancoding.com/sketch -->
    <title>print</title>
    <desc>Created with Sketch.</desc>
    <defs></defs>
    <g id="Page-1" stroke="none" stroke-width="1" fill="none" fill-rule="evenodd" sketch:type="MSPage">
        <g id="print" sketch:type="MSArtboardGroup" fill="#000000">
            <g sketch:type="MSLayerGroup" transform="translate(-1.000000, 7.000000)" id="Shape">
                <path d="M7.6,25.6 L94.3,25.6 C97.2,25.6 96.7,22.5 95.3,22 C93.9,21.5 77.7,15.4 74.9,15.4 L70.3,15.4 L70.3,0.1 L31.5,0.1 L31.5,15.4 L26.9,15.4 C24.1,15.4 8,21.5 6.5,22 C5.2,22.5 4.7,25.6 7.6,25.6 L7.6,25.6 Z M95.4,31.2 L6.6,31.2 C3.8,31.2 1,34.5 1,37.3 L1,55.2 C1,58 3.8,61.3 6.6,61.3 L16.7,61.3 L12.2,86.8 L89.7,86.8 L85.2,61.3 L95.3,61.3 C98.1,61.3 100.9,58 100.9,55.2 L100.9,37.3 C101,34.5 98.2,31.2 95.4,31.2 L95.4,31.2 Z M22.4,76.6 L29.5,43.4 L72.4,43.4 L79.5,76.6 L22.4,76.6 L22.4,76.6 Z" sketch:type="MSShapeGroup"></path>
            </g>
        </g>
    </g>
</svg>