<?xml version="1.0" encoding="UTF-8" standalone="no"?>
<svg width="100px" height="100px" viewBox="0 0 100 100" version="1.1" xmlns="http://www.w3.org/2000/svg" xmlns:xlink="http://www.w3.org/1999/xlink" xmlns:sketch="http://www.bohemiancoding.com/sketch/ns">
    <!-- Generator: Sketch 3.2.2 (9983) - http://www.bohemiancoding.com/sketch -->
    <title>profile</title>
    <desc>Created with Sketch.</desc>
    <defs></defs>
    <g id="Page-1" stroke="none" stroke-width="1" fill="none" fill-rule="evenodd" sketch:type="MSPage">
        <g id="profile" sketch:type="MSArtboardGroup" fill="#7B8090">
            <g sketch:type="MSLayerGroup" transform="translate(-1.000000, -1.000000)" id="Group">
                <g sketch:type="MSShapeGroup">
                    <path d="M50.8,0.2 C23.2,0.2 0.8,22.6 0.8,50.2 C0.8,77.8 23.2,100.2 50.8,100.2 C78.4,100.2 100.8,77.8 100.8,50.2 C100.8,22.6 78.4,0.2 50.8,0.2 L50.8,0.2 Z M50.8,91.7 C27.9,91.7 9.3,73.1 9.3,50.2 C9.3,27.3 27.9,8.7 50.8,8.7 C73.7,8.7 92.3,27.3 92.3,50.2 C92.3,73.1 73.7,91.7 50.8,91.7 L50.8,91.7 Z" id="Shape"></path>
                    <path d="M51.3,81.6 C62,81.6 71.7,77.6 79,71 C78.8,69.7 78.5,68.4 78,67.2 C77.3,65.5 73.4,62.8 66.3,60.2 C59.2,57.6 56.9,55.4 56.9,50.8 C56.9,48 59.1,48.9 60,43.8 C60.4,41.7 62.3,43.8 62.7,38.9 C62.7,37 61.7,36.5 61.7,36.5 C61.7,36.5 62.2,33.6 62.4,31.4 C62.7,28.6 60.8,21.6 51,21.6 C41.2,21.6 39.3,28.7 39.6,31.4 C39.8,33.6 40.3,36.5 40.3,36.5 C40.3,36.5 39.3,37 39.3,38.9 C39.7,43.8 41.6,41.7 42,43.8 C43,48.9 45.1,48 45.1,50.8 C45.1,55.5 42.8,57.6 35.7,60.2 C28.6,62.8 24.6,65.5 24,67.2 C23.6,68.4 23.4,69.5 23.3,70.6 C30.6,77.4 40.5,81.6 51.3,81.6 L51.3,81.6 Z" id="Shape"></path>
                </g>
            </g>
        </g>
    </g>
</svg>