<?xml version="1.0" encoding="utf-8"?>
<!-- Generator: Adobe Illustrator 19.1.0, SVG Export Plug-In . SVG Version: 6.00 Build 0)  -->
<svg version="1.1" id="Layer_1" xmlns:sketch="http://www.bohemiancoding.com/sketch/ns"
	 xmlns="http://www.w3.org/2000/svg" xmlns:xlink="http://www.w3.org/1999/xlink" x="0px" y="0px" viewBox="-49 51 100 100"
	 style="enable-background:new -49 51 100 100;" xml:space="preserve">
<style type="text/css">
	.st0{fill:#7B8090;}
</style>
<path id="Shape" class="st0" d="M0.8,51.2c-27.6,0-50,22.4-50,50s22.4,50,50,50s50-22.4,50-50S28.4,51.2,0.8,51.2L0.8,51.2z
	 M0.8,142.7c-22.9,0-41.5-18.6-41.5-41.5s18.6-41.5,41.5-41.5s41.5,18.6,41.5,41.5S23.7,142.7,0.8,142.7L0.8,142.7z"/>
<path id="Shape_1_" class="st0" d="M1.3,131.6c10.7,0,20.4-4,27.7-10.6c-0.2-1.3-0.5-2.6-1-3.8c-0.7-1.7-4.6-4.4-11.7-7
	c-7.1-2.6-9.4-4.8-9.4-9.4c0-2.8,2.2-1.9,3.1-7c0.4-2.1,2.3,0,2.7-4.9c0-1.9-1-2.4-1-2.4s0.5-2.9,0.7-5.1c0.3-2.8-1.6-9.8-11.4-9.8
	s-11.7,7.1-11.4,9.8c0.2,2.2,0.7,5.1,0.7,5.1s-1,0.5-1,2.4c0.4,4.9,2.3,2.8,2.7,4.9c1,5.1,3.1,4.2,3.1,7c0,4.7-2.3,6.8-9.4,9.4
	c-7.1,2.6-11.1,5.3-11.7,7c-0.4,1.2-0.6,2.3-0.7,3.4C-19.4,127.4-9.5,131.6,1.3,131.6L1.3,131.6z"/>
</svg>
