<?xml version="1.0" encoding="UTF-8" standalone="no"?>
<svg width="100px" height="100px" viewBox="0 0 100 100" version="1.1" xmlns="http://www.w3.org/2000/svg" xmlns:xlink="http://www.w3.org/1999/xlink" xmlns:sketch="http://www.bohemiancoding.com/sketch/ns">
    <!-- Generator: Sketch 3.2.2 (9983) - http://www.bohemiancoding.com/sketch -->
    <title>search</title>
    <desc>Created with Sketch.</desc>
    <defs></defs>
    <g id="Page-1" stroke="none" stroke-width="1" fill="none" fill-rule="evenodd" sketch:type="MSPage">
        <g id="search" sketch:type="MSArtboardGroup" fill="#D8DDED">
            <g sketch:type="MSLayerGroup" transform="translate(-1.000000, -1.000000)" id="Shape">
                <path d="M88.3,68.8 C103.9,53.2 104.1,28 88.4,12.4 C72.8,-3.2 47.8,-2.8 32.2,12.9 C19.3,25.7 18.2,46.2 25.8,60.7 L2.9,83.6 C-0.1,86.5 -1.1,90.8 1.9,93.7 L7.2,99 C10.2,101.9 14.7,101.3 17.7,98.3 L40.6,75.4 C55.2,83 75.5,81.6 88.3,68.8 L88.3,68.8 Z M42.9,58 C33.3,48.4 33.3,32.9 42.9,23.4 C52.5,13.8 68,13.8 77.6,23.4 C87.2,33 87.2,48.5 77.6,58 C68,67.6 52.5,67.6 42.9,58 L42.9,58 Z" sketch:type="MSShapeGroup"></path>
            </g>
        </g>
    </g>
</svg>