<?xml version="1.0" encoding="UTF-8" standalone="no"?>
<svg width="100px" height="100px" viewBox="0 0 100 100" version="1.1" xmlns="http://www.w3.org/2000/svg" xmlns:xlink="http://www.w3.org/1999/xlink" xmlns:sketch="http://www.bohemiancoding.com/sketch/ns">
    <!-- Generator: Sketch 3.2.2 (9983) - http://www.bohemiancoding.com/sketch -->
    <title>show-menu-mobile</title>
    <desc>Created with Sketch.</desc>
    <defs></defs>
    <g id="Page-1" stroke="none" stroke-width="1" fill="none" fill-rule="evenodd" sketch:type="MSPage">
        <g id="show-menu-mobile" sketch:type="MSArtboardGroup" fill="#000000">
            <g sketch:type="MSLayerGroup" transform="translate(0.000000, 10.000000)" id="Group">
                <g sketch:type="MSShapeGroup">
                    <path d="M99.9,12.5 C99.9,15.5 97.5,17.9 94.5,17.9 L34.7,17.9 C31.7,17.9 29.3,15.5 29.3,12.5 L29.3,5.8 C29.3,2.8 31.7,0.4 34.7,0.4 L94.5,0.4 C97.5,0.4 99.9,2.8 99.9,5.8 L99.9,12.5 L99.9,12.5 Z" id="Shape"></path>
                    <path d="M99.9,43.4 C99.9,46.4 97.5,48.8 94.5,48.8 L34.7,48.8 C31.7,48.8 29.3,46.4 29.3,43.4 L29.3,36.7 C29.3,33.7 31.7,31.3 34.7,31.3 L94.5,31.3 C97.5,31.3 99.9,33.7 99.9,36.7 L99.9,43.4 L99.9,43.4 Z" id="Shape"></path>
                    <path d="M99.9,74.2 C99.9,77.2 97.5,79.6 94.5,79.6 L34.7,79.6 C31.7,79.6 29.3,77.2 29.3,74.2 L29.3,67.5 C29.3,64.5 31.7,62.1 34.7,62.1 L94.5,62.1 C97.5,62.1 99.9,64.5 99.9,67.5 L99.9,74.2 L99.9,74.2 Z" id="Shape"></path>
                    <path d="M20.4,12.5 C20.4,15.5 18,17.9 15,17.9 L5.5,17.9 C2.5,17.9 0.1,15.5 0.1,12.5 L0.1,5.8 C0.1,2.8 2.5,0.4 5.5,0.4 L15,0.4 C18,0.4 20.4,2.8 20.4,5.8 L20.4,12.5 L20.4,12.5 Z" id="Shape"></path>
                    <path d="M20.4,43.4 C20.4,46.4 18,48.8 15,48.8 L5.5,48.8 C2.5,48.8 0.1,46.4 0.1,43.4 L0.1,36.7 C0.1,33.7 2.5,31.3 5.5,31.3 L15,31.3 C18,31.3 20.4,33.7 20.4,36.7 L20.4,43.4 L20.4,43.4 Z" id="Shape"></path>
                    <path d="M20.4,74.2 C20.4,77.2 18,79.6 15,79.6 L5.5,79.6 C2.5,79.6 0.1,77.2 0.1,74.2 L0.1,67.5 C0.1,64.5 2.5,62.1 5.5,62.1 L15,62.1 C18,62.1 20.4,64.5 20.4,67.5 L20.4,74.2 L20.4,74.2 Z" id="Shape"></path>
                </g>
            </g>
        </g>
    </g>
</svg>