<?xml version="1.0" encoding="UTF-8" standalone="no"?>
<svg width="100px" height="100px" viewBox="0 0 100 100" version="1.1" xmlns="http://www.w3.org/2000/svg" xmlns:xlink="http://www.w3.org/1999/xlink" xmlns:sketch="http://www.bohemiancoding.com/sketch/ns">
    <!-- Generator: Sketch 3.2.2 (9983) - http://www.bohemiancoding.com/sketch -->
    <title>user</title>
    <desc>Created with Sketch.</desc>
    <defs></defs>
    <g id="Page-1" stroke="none" stroke-width="1" fill="none" fill-rule="evenodd" sketch:type="MSPage">
        <g id="user" sketch:type="MSArtboardGroup" fill="#747E9F">
            <g sketch:type="MSLayerGroup" transform="translate(-1.000000, 3.000000)" id="Shape">
                <path d="M78.6,70.8 C65.7,66.1 61.6,62.1 61.6,53.6 C61.6,48.5 65.5,50.2 67.3,40.8 C68,36.9 71.5,40.7 72.2,31.9 C72.2,28.4 70.3,27.5 70.3,27.5 C70.3,27.5 71.3,22.3 71.6,18.3 C72.1,13.3 68.7,0.4 50.8,0.4 C32.9,0.4 29.5,13.3 30,18.3 C30.4,22.3 31.3,27.5 31.3,27.5 C31.3,27.5 29.4,28.4 29.4,31.9 C30.1,40.7 33.5,36.9 34.3,40.8 C36,50.1 40,48.5 40,53.6 C40,62.1 35.9,66.1 23,70.8 C10.1,75.5 2.7,80.5 1.6,83.6 C-1.4,92.2 6.2,94.6 6.2,94.6 L50.8,94.6 L96.5,94.6 C96.5,94.6 103.2,91.5 100.1,83.6 C98.8,80.5 91.6,75.5 78.6,70.8 L78.6,70.8 Z" sketch:type="MSShapeGroup"></path>
            </g>
        </g>
    </g>
</svg>