<?xml version="1.0" encoding="UTF-8" standalone="no"?>
<svg width="100px" height="100px" viewBox="0 0 100 100" version="1.1" xmlns="http://www.w3.org/2000/svg" xmlns:xlink="http://www.w3.org/1999/xlink" xmlns:sketch="http://www.bohemiancoding.com/sketch/ns">
    <!-- Generator: Sketch 3.2.2 (9983) - http://www.bohemiancoding.com/sketch -->
    <title>vcard</title>
    <desc>Created with Sketch.</desc>
    <defs></defs>
    <g id="Page-1" stroke="none" stroke-width="1" fill="none" fill-rule="evenodd" sketch:type="MSPage">
        <g id="vcard" sketch:type="MSArtboardGroup" fill="#000000">
            <g sketch:type="MSLayerGroup" transform="translate(0.000000, 9.000000)" id="Shape">
                <path d="M90,0.8 L10,0.8 C4.5,0.8 0,5.4 0,11 L0,72.1 C0,77.7 4.5,82.3 10,82.3 L90,82.3 C95.5,82.3 100,77.7 100,72.1 L100,11 C100,5.3 95.5,0.8 90,0.8 L90,0.8 Z M90,72.1 L10,72.1 L10,11 L90,11 L90,72.1 L90,72.1 Z M43.4,26.1 L18.4,26.1 L18.4,33.9 L43.4,33.9 L43.4,26.1 L43.4,26.1 Z M43.3,38.4 L18.3,38.4 L18.3,46.2 L43.3,46.2 L43.3,38.4 L43.3,38.4 Z M43.2,50.8 L18.2,50.8 L18.2,58.6 L43.2,58.6 L43.2,50.8 L43.2,50.8 Z" sketch:type="MSShapeGroup"></path>
                <path d="M81.9,58.5 L52,58.5 C52,58.5 48.8,58.7 48.5,57.6 C48.1,55.9 48.4,52.3 52.4,50.8 C52.4,50.8 61.3,48.3 61.3,45.7 C61.3,45.7 62.8,45.9 62.8,45.1 C62.8,45.1 61.3,43.9 61.4,41.6 C61.4,41.6 60,41.3 60,40.1 C60,40.1 59.1,39 59.7,35.9 C59.7,35.9 58.8,31.1 60.5,28.7 C60.5,28.7 62.3,27 63.2,27 C63.2,27 63.5,26.2 66.1,26.2 C66.1,26.2 69.6,25.9 69.6,27.1 C69.6,27.1 72.6,28.2 72.6,29.3 C72.6,29.3 74.1,31.3 73.5,35.9 C73.5,35.9 74.3,39.7 72.9,41 C72.9,41 72,42.4 71.5,42.4 C71.5,42.4 71.8,44.7 70.7,45.2 C70.7,45.2 71.3,45.7 71.9,45.5 C71.9,45.5 73.3,48.7 81.7,51.2 C81.7,51.2 85.6,53.2 85,57.4 C84.9,58.6 81.9,58.5 81.9,58.5 L81.9,58.5 Z" sketch:type="MSShapeGroup"></path>
            </g>
        </g>
    </g>
</svg>